<?xml version="1.0" encoding="UTF-8" standalone="no"?><!-- Generator: Gravit.io --><svg xmlns="http://www.w3.org/2000/svg" xmlns:xlink="http://www.w3.org/1999/xlink" style="isolation:isolate" viewBox="0 0 280 65" width="103.4pt" height="24pt"><defs><clipPath id="_clipPath_YsyNfutlGcbIZNMoI5hC0U7HT0FymoFK"><rect width="280" height="65"/></clipPath></defs><g clip-path="url(#_clipPath_YsyNfutlGcbIZNMoI5hC0U7HT0FymoFK)"><path d=" M 17.136 12.87 L 17.136 12.87 Q 22.052 12.87 24.619 16.015 L 24.619 16.015 L 24.619 16.015 Q 27.186 19.16 27.186 25.017 L 27.186 25.017 L 27.186 39.043 L 27.186 39.043 Q 27.186 44.755 24.655 47.973 L 24.655 47.973 L 24.655 47.973 Q 22.125 51.19 17.136 51.19 L 17.136 51.19 L 17.136 51.19 Q 13.087 51.19 10.628 48.443 L 10.628 48.443 L 10.628 48.443 Q 10.484 48.298 10.339 48.334 L 10.339 48.334 L 10.339 48.334 Q 10.195 48.37 10.195 48.587 L 10.195 48.587 L 10.195 49.744 L 10.195 49.744 Q 10.195 50.106 9.942 50.359 L 9.942 50.359 L 9.942 50.359 Q 9.689 50.612 9.327 50.612 L 9.327 50.612 L 0.868 50.612 L 0.868 50.612 Q 0.506 50.612 0.253 50.359 L 0.253 50.359 L 0.253 50.359 Q 0 50.106 0 49.744 L 0 49.744 L 0 0.868 L 0 0.868 Q 0 0.506 0.253 0.253 L 0.253 0.253 L 0.253 0.253 Q 0.506 0 0.868 0 L 0.868 0 L 9.327 0 L 9.327 0 Q 9.689 0 9.942 0.253 L 9.942 0.253 L 9.942 0.253 Q 10.195 0.506 10.195 0.868 L 10.195 0.868 L 10.195 15.545 L 10.195 15.545 Q 10.195 15.69 10.339 15.69 L 10.339 15.69 L 10.339 15.69 Q 10.628 15.69 10.918 15.328 L 10.918 15.328 L 10.918 15.328 Q 13.376 12.87 17.136 12.87 L 17.136 12.87 Z  M 16.991 25.74 L 16.991 25.74 Q 16.991 23.932 16.051 22.775 L 16.051 22.775 L 16.051 22.775 Q 15.111 21.618 13.593 21.618 L 13.593 21.618 L 13.593 21.618 Q 12.291 21.618 11.351 22.486 L 11.351 22.486 L 11.351 22.486 Q 10.412 23.354 10.195 24.8 L 10.195 24.8 L 10.195 39.26 L 10.195 39.26 Q 10.412 40.706 11.351 41.574 L 11.351 41.574 L 11.351 41.574 Q 12.291 42.442 13.593 42.442 L 13.593 42.442 L 13.593 42.442 Q 15.111 42.442 16.051 41.285 L 16.051 41.285 L 16.051 41.285 Q 16.991 40.128 16.991 38.32 L 16.991 38.32 L 16.991 25.74 Z " fill-rule="evenodd" fill="rgb(69,56,41)"/><path d=" M 48.804 13.014 L 48.804 13.014 Q 50.756 13.014 51.841 13.737 L 51.841 13.737 L 51.841 13.737 Q 52.419 14.099 52.275 14.822 L 52.275 14.822 L 50.901 23.281 L 50.901 23.281 Q 50.829 24.077 49.889 23.86 L 49.889 23.86 L 49.889 23.86 Q 49.093 23.571 47.937 23.571 L 47.937 23.571 L 47.937 23.571 Q 46.852 23.571 46.057 23.86 L 46.057 23.86 L 46.057 23.86 Q 44.394 24.149 43.382 25.848 L 43.382 25.848 L 43.382 25.848 Q 42.369 27.547 42.369 29.789 L 42.369 29.789 L 42.369 49.672 L 42.369 49.672 Q 42.369 50.033 42.116 50.286 L 42.116 50.286 L 42.116 50.286 Q 41.863 50.539 41.502 50.539 L 41.502 50.539 L 33.042 50.539 L 33.042 50.539 Q 32.681 50.539 32.428 50.286 L 32.428 50.286 L 32.428 50.286 Q 32.175 50.033 32.175 49.672 L 32.175 49.672 L 32.175 14.316 L 32.175 14.316 Q 32.175 13.954 32.428 13.701 L 32.428 13.701 L 32.428 13.701 Q 32.681 13.448 33.042 13.448 L 33.042 13.448 L 41.502 13.448 L 41.502 13.448 Q 41.863 13.448 42.116 13.701 L 42.116 13.701 L 42.116 13.701 Q 42.369 13.954 42.369 14.316 L 42.369 14.316 L 42.369 17.136 L 42.369 17.136 Q 42.369 17.425 42.478 17.461 L 42.478 17.461 L 42.478 17.461 Q 42.586 17.497 42.731 17.28 L 42.731 17.28 L 42.731 17.28 Q 44.683 13.014 48.804 13.014 L 48.804 13.014 Z " fill="rgb(69,56,41)"/><path d=" M 81.919 34.344 L 81.919 34.344 Q 81.919 34.705 81.666 34.958 L 81.666 34.958 L 81.666 34.958 Q 81.413 35.211 81.051 35.211 L 81.051 35.211 L 65.145 35.211 L 65.145 35.211 Q 64.783 35.211 64.783 35.573 L 64.783 35.573 L 64.783 38.248 L 64.783 38.248 Q 64.783 40.056 65.759 41.249 L 65.759 41.249 L 65.759 41.249 Q 66.735 42.442 68.254 42.442 L 68.254 42.442 L 68.254 42.442 Q 69.627 42.442 70.495 41.538 L 70.495 41.538 L 70.495 41.538 Q 71.363 40.634 71.652 39.26 L 71.652 39.26 L 71.652 39.26 Q 71.869 38.537 72.592 38.537 L 72.592 38.537 L 80.907 38.971 L 80.907 38.971 Q 81.268 38.971 81.521 39.224 L 81.521 39.224 L 81.521 39.224 Q 81.774 39.477 81.702 39.911 L 81.702 39.911 L 81.702 39.911 Q 81.196 45.478 77.834 48.334 L 77.834 48.334 L 77.834 48.334 Q 74.472 51.19 68.254 51.19 L 68.254 51.19 L 68.254 51.19 Q 61.819 51.19 58.204 47.973 L 58.204 47.973 L 58.204 47.973 Q 54.588 44.755 54.588 39.043 L 54.588 39.043 L 54.588 25.017 L 54.588 25.017 Q 54.588 19.522 58.24 16.196 L 58.24 16.196 L 58.24 16.196 Q 61.891 12.87 68.254 12.87 L 68.254 12.87 L 68.254 12.87 Q 74.616 12.87 78.268 16.196 L 78.268 16.196 L 78.268 16.196 Q 81.919 19.522 81.919 25.017 L 81.919 25.017 L 81.919 34.344 Z  M 68.254 21.618 L 68.254 21.618 Q 66.735 21.618 65.759 22.775 L 65.759 22.775 L 65.759 22.775 Q 64.783 23.932 64.783 25.74 L 64.783 25.74 L 64.783 28.56 L 64.783 28.56 Q 64.783 28.921 65.145 28.921 L 65.145 28.921 L 71.363 28.921 L 71.363 28.921 Q 71.724 28.921 71.724 28.56 L 71.724 28.56 L 71.724 25.74 L 71.724 25.74 Q 71.724 23.932 70.748 22.775 L 70.748 22.775 L 70.748 22.775 Q 69.772 21.618 68.254 21.618 L 68.254 21.618 Z " fill-rule="evenodd" fill="rgb(69,56,41)"/><path d=" M 92.764 50.612 L 92.764 50.612 Q 91.969 50.612 91.824 49.816 L 91.824 49.816 L 84.016 14.316 L 84.016 14.027 L 84.016 14.027 Q 84.016 13.376 84.811 13.376 L 84.811 13.376 L 92.836 13.376 L 92.836 13.376 Q 93.704 13.376 93.776 14.171 L 93.776 14.171 L 96.885 33.982 L 96.885 33.982 Q 96.958 34.199 97.102 34.199 L 97.102 34.199 L 97.102 34.199 Q 97.247 34.199 97.319 33.982 L 97.319 33.982 L 100.501 14.171 L 100.501 14.171 Q 100.573 13.376 101.44 13.376 L 101.44 13.376 L 108.598 13.376 L 108.598 13.376 Q 109.466 13.376 109.538 14.171 L 109.538 14.171 L 112.937 34.055 L 112.937 34.055 Q 113.009 34.271 113.153 34.235 L 113.153 34.235 L 113.153 34.235 Q 113.298 34.199 113.37 33.982 L 113.37 33.982 L 116.407 14.171 L 116.407 14.171 Q 116.479 13.376 117.347 13.376 L 117.347 13.376 L 125.3 13.521 L 125.3 13.521 Q 126.24 13.521 126.023 14.461 L 126.023 14.461 L 118.287 49.816 L 118.287 49.816 Q 118.142 50.612 117.347 50.612 L 117.347 50.612 L 109.105 50.612 L 109.105 50.612 Q 108.237 50.612 108.165 49.816 L 108.165 49.816 L 105.056 31.452 L 105.056 31.452 Q 104.983 31.235 104.839 31.235 L 104.839 31.235 L 104.839 31.235 Q 104.694 31.235 104.622 31.452 L 104.622 31.452 L 101.657 49.816 L 101.657 49.816 Q 101.585 50.612 100.717 50.612 L 100.717 50.612 L 92.764 50.612 Z " fill="rgb(69,56,41)"/><path d=" M 130.506 50.612 L 130.506 50.612 Q 130.145 50.612 129.892 50.359 L 129.892 50.359 L 129.892 50.359 Q 129.638 50.106 129.638 49.744 L 129.638 49.744 L 129.638 0.868 L 129.638 0.868 Q 129.638 0.506 129.892 0.253 L 129.892 0.253 L 129.892 0.253 Q 130.145 0 130.506 0 L 130.506 0 L 138.966 0 L 138.966 0 Q 139.327 0 139.58 0.253 L 139.58 0.253 L 139.58 0.253 Q 139.833 0.506 139.833 0.868 L 139.833 0.868 L 139.833 49.744 L 139.833 49.744 Q 139.833 50.106 139.58 50.359 L 139.58 50.359 L 139.58 50.359 Q 139.327 50.612 138.966 50.612 L 138.966 50.612 L 130.506 50.612 Z " fill="rgb(69,56,41)"/><path d=" M 130.506 50.612 L 130.506 50.612 Q 130.145 50.612 129.892 50.359 L 129.892 50.359 L 129.892 50.359 Q 129.638 50.106 129.638 49.744 L 129.638 49.744 L 129.638 0.868 L 129.638 0.868 Q 129.638 0.506 129.892 0.253 L 129.892 0.253 L 129.892 0.253 Q 130.145 0 130.506 0 L 130.506 0 L 138.966 0 L 138.966 0 Q 139.327 0 139.58 0.253 L 139.58 0.253 L 139.58 0.253 Q 139.833 0.506 139.833 0.868 L 139.833 0.868 L 139.833 49.744 L 139.833 49.744 Q 139.833 50.106 139.58 50.359 L 139.58 50.359 L 139.58 50.359 Q 139.327 50.612 138.966 50.612 L 138.966 50.612 L 130.506 50.612 Z " fill="rgb(69,56,41)"/><mask id="_mask_cxojtONNhPvtrp1AvZGarDcPBmfK2cno"><line x1="137.605" y1="50.612" x2="167.421" y2="50.612" fill="white" stroke="none"/></mask><line x1="137.605" y1="50.612" x2="167.421" y2="50.612" mask="url(#_mask_cxojtONNhPvtrp1AvZGarDcPBmfK2cno)" vector-effect="non-scaling-stroke" stroke-width="2" stroke="rgb(69,56,41)" stroke-linejoin="miter" stroke-linecap="square" stroke-miterlimit="3"/><path d=" M 172.233 50.612 L 172.233 50.612 Q 171.438 50.612 171.221 49.889 L 171.221 49.889 L 162.472 14.316 L 162.472 14.027 L 162.472 14.027 Q 162.472 13.376 163.268 13.376 L 163.268 13.376 L 172.595 13.376 L 172.595 13.376 Q 173.462 13.376 173.535 14.171 L 173.535 14.171 L 176.861 34.055 L 176.861 34.055 Q 176.933 34.271 177.077 34.271 L 177.077 34.271 L 177.077 34.271 Q 177.222 34.271 177.294 34.055 L 177.294 34.055 L 180.548 14.171 L 180.548 14.171 Q 180.62 13.376 181.488 13.376 L 181.488 13.376 L 190.815 13.521 L 190.815 13.521 Q 191.827 13.521 191.61 14.461 L 191.61 14.461 L 182.934 49.889 L 182.934 49.889 Q 182.717 50.612 181.922 50.612 L 181.922 50.612 L 172.233 50.612 Z " fill="rgb(69,56,41)"/><path d=" M 221.254 34.344 L 221.254 34.344 Q 221.254 34.705 221.001 34.958 L 221.001 34.958 L 221.001 34.958 Q 220.748 35.211 220.387 35.211 L 220.387 35.211 L 204.48 35.211 L 204.48 35.211 Q 204.119 35.211 204.119 35.573 L 204.119 35.573 L 204.119 38.248 L 204.119 38.248 Q 204.119 40.056 205.095 41.249 L 205.095 41.249 L 205.095 41.249 Q 206.071 42.442 207.589 42.442 L 207.589 42.442 L 207.589 42.442 Q 208.963 42.442 209.831 41.538 L 209.831 41.538 L 209.831 41.538 Q 210.698 40.634 210.987 39.26 L 210.987 39.26 L 210.987 39.26 Q 211.204 38.537 211.927 38.537 L 211.927 38.537 L 220.242 38.971 L 220.242 38.971 Q 220.604 38.971 220.857 39.224 L 220.857 39.224 L 220.857 39.224 Q 221.11 39.477 221.037 39.911 L 221.037 39.911 L 221.037 39.911 Q 220.531 45.478 217.169 48.334 L 217.169 48.334 L 217.169 48.334 Q 213.807 51.19 207.589 51.19 L 207.589 51.19 L 207.589 51.19 Q 201.154 51.19 197.539 47.973 L 197.539 47.973 L 197.539 47.973 Q 193.924 44.755 193.924 39.043 L 193.924 39.043 L 193.924 25.017 L 193.924 25.017 Q 193.924 19.522 197.575 16.196 L 197.575 16.196 L 197.575 16.196 Q 201.227 12.87 207.589 12.87 L 207.589 12.87 L 207.589 12.87 Q 213.952 12.87 217.603 16.196 L 217.603 16.196 L 217.603 16.196 Q 221.254 19.522 221.254 25.017 L 221.254 25.017 L 221.254 34.344 Z  M 207.589 21.618 L 207.589 21.618 Q 206.071 21.618 205.095 22.775 L 205.095 22.775 L 205.095 22.775 Q 204.119 23.932 204.119 25.74 L 204.119 25.74 L 204.119 28.56 L 204.119 28.56 Q 204.119 28.921 204.48 28.921 L 204.48 28.921 L 210.698 28.921 L 210.698 28.921 Q 211.06 28.921 211.06 28.56 L 211.06 28.56 L 211.06 25.74 L 211.06 25.74 Q 211.06 23.932 210.084 22.775 L 210.084 22.775 L 210.084 22.775 Q 209.107 21.618 207.589 21.618 L 207.589 21.618 Z " fill-rule="evenodd" fill="rgb(69,56,41)"/><path d=" M 242.584 13.014 L 242.584 13.014 Q 244.536 13.014 245.62 13.737 L 245.62 13.737 L 245.62 13.737 Q 246.199 14.099 246.054 14.822 L 246.054 14.822 L 244.68 23.281 L 244.68 23.281 Q 244.608 24.077 243.668 23.86 L 243.668 23.86 L 243.668 23.86 Q 242.873 23.571 241.716 23.571 L 241.716 23.571 L 241.716 23.571 Q 240.631 23.571 239.836 23.86 L 239.836 23.86 L 239.836 23.86 Q 238.173 24.149 237.161 25.848 L 237.161 25.848 L 237.161 25.848 Q 236.149 27.547 236.149 29.789 L 236.149 29.789 L 236.149 49.672 L 236.149 49.672 Q 236.149 50.033 235.896 50.286 L 235.896 50.286 L 235.896 50.286 Q 235.643 50.539 235.281 50.539 L 235.281 50.539 L 226.822 50.539 L 226.822 50.539 Q 226.46 50.539 226.207 50.286 L 226.207 50.286 L 226.207 50.286 Q 225.954 50.033 225.954 49.672 L 225.954 49.672 L 225.954 14.316 L 225.954 14.316 Q 225.954 13.954 226.207 13.701 L 226.207 13.701 L 226.207 13.701 Q 226.46 13.448 226.822 13.448 L 226.822 13.448 L 235.281 13.448 L 235.281 13.448 Q 235.643 13.448 235.896 13.701 L 235.896 13.701 L 235.896 13.701 Q 236.149 13.954 236.149 14.316 L 236.149 14.316 L 236.149 17.136 L 236.149 17.136 Q 236.149 17.425 236.257 17.461 L 236.257 17.461 L 236.257 17.461 Q 236.366 17.497 236.51 17.28 L 236.51 17.28 L 236.51 17.28 Q 238.462 13.014 242.584 13.014 L 242.584 13.014 Z " fill="rgb(69,56,41)"/><path d=" M 252.931 65 L 252.931 65 Q 252.787 65 252.642 64.747 L 252.642 64.747 L 252.642 64.747 Q 252.498 64.494 252.498 64.132 L 252.498 64.132 L 252.498 57.481 L 252.498 57.481 Q 252.498 56.613 253.148 56.613 L 253.148 56.613 L 253.148 56.613 Q 256.908 56.541 258.499 55.42 L 258.499 55.42 L 258.499 55.42 Q 260.089 54.299 260.306 50.829 L 260.306 50.829 L 260.234 50.395 L 251.124 14.316 L 251.124 14.027 L 251.124 14.027 Q 251.124 13.376 251.919 13.376 L 251.919 13.376 L 261.029 13.376 L 261.029 13.376 Q 261.897 13.376 261.969 14.171 L 261.969 14.171 L 265.295 35.645 L 265.295 35.645 Q 265.367 35.934 265.512 35.934 L 265.512 35.934 L 265.512 35.934 Q 265.657 35.934 265.729 35.645 L 265.729 35.645 L 268.91 14.171 L 268.91 14.171 Q 268.983 13.376 269.85 13.376 L 269.85 13.376 L 278.96 13.521 L 278.96 13.521 Q 279.973 13.521 279.756 14.461 L 279.756 14.461 L 270.212 51.986 L 270.212 51.986 Q 268.766 57.264 267.139 59.903 L 267.139 59.903 L 267.139 59.903 Q 265.512 62.542 262.367 63.771 L 262.367 63.771 L 262.367 63.771 Q 259.222 65 253.293 65 L 253.293 65 L 252.931 65 Z " fill="rgb(69,56,41)"/><path d=" M 152.096 4.136 C 153.678 4.087 155.26 4.143 155.367 4.358 C 155.367 4.794 155.367 5.45 155.149 5.45 C 155.149 5.668 156.022 19.862 156.022 20.517 C 156.241 20.954 156.678 21.827 157.333 22.482 C 159.08 24.448 158.861 23.356 158.861 37.55 L 158.861 50.434 Q 156.886 52.451 154.275 52.836 C 153.338 52.94 152.698 52.995 152.096 52.999 L 152.096 52.999 C 151.494 52.995 150.855 52.94 149.917 52.836 Q 147.306 52.451 145.331 50.434 L 145.331 37.55 C 145.331 23.356 145.113 24.448 146.86 22.482 C 147.515 21.827 147.951 20.954 148.17 20.517 C 148.17 19.862 149.043 5.668 149.043 5.45 C 148.825 5.45 148.825 4.794 148.825 4.358 C 148.932 4.143 150.514 4.087 152.096 4.136 L 152.096 4.136 Z  M 149.569 3.475 L 149.569 3.475 Q 149.289 3.475 149.066 3.421 L 149.066 3.421 L 149.066 3.421 Q 148.842 3.367 148.842 3.29 L 148.842 3.29 L 148.17 0.185 L 148.17 0.185 Q 148.17 0 148.786 0 L 148.786 0 L 155.392 0 L 155.392 0 Q 156.119 0 156.007 0.185 L 156.007 0.185 L 155.224 3.29 L 155.224 3.29 Q 155.168 3.367 154.972 3.421 L 154.972 3.421 L 154.972 3.421 Q 154.776 3.475 154.496 3.475 L 154.496 3.475 L 149.569 3.475 Z " fill-rule="evenodd" fill="rgb(252,196,4)"/><g clip-path="url(#_clipPath_RbdeDrvTJxkooqDRnGi3hwlzMfWsmxgv)"><text transform="matrix(1,0,0,1,51.152,-46.6)" style="font-family:'Barlow Condensed';font-weight:700;font-size:68px;font-style:normal;fill:#453829;stroke:none;">brewlivery</text></g><defs><clipPath id="_clipPath_RbdeDrvTJxkooqDRnGi3hwlzMfWsmxgv"><rect x="0" y="0" width="257" height="65" transform="matrix(1,0,0,1,51.152,-98)"/></clipPath></defs></g></svg>
